<?xml version="1.0" ?>
<svg xmlns="http://www.w3.org/2000/svg" width="500" height="500" viewBox="0 0 500 500">
  <defs>
    <radialGradient id="earthGrad" cx="35%" cy="30%" r="70%">
      <stop offset="0%" stop_color="#6bc5ff"/>
      <stop offset="60%" stop_color="#2e86ab"/>
      <stop offset="100%" stop_color="#1a5276"/>
    </radialGradient>
  </defs>
  <circle cx="250" cy="250" r="180" fill="url(#earthGrad)"/>
  <circle cx="250" cy="250" r="182" fill="none" stroke="#2e86ab" stroke_width="2" opacity="0.4"/>
  <line x1="70" y1="250" x2="430" y2="250" stroke="rgba(255,255,255,0.4)" stroke_width="1.5"/>
  <line x1="142" y1="70" x2="142" y2="430" stroke="rgba(255,255,255,0.3)" stroke_width="1"/>
  <line x1="214" y1="70" x2="214" y2="430" stroke="rgba(255,255,255,0.3)" stroke_width="1"/>
  <line x1="286" y1="70" x2="286" y2="430" stroke="rgba(255,255,255,0.3)" stroke_width="1"/>
  <line x1="358" y1="70" x2="358" y2="430" stroke="rgba(255,255,255,0.3)" stroke_width="1"/>
  <line x1="70" y1="160" x2="430" y2="160" stroke="rgba(255,255,255,0.25)" stroke_width="1"/>
  <line x1="70" y1="250" x2="430" y2="250" stroke="rgba(255,255,255,0.25)" stroke_width="1"/>
  <line x1="70" y1="340" x2="430" y2="340" stroke="rgba(255,255,255,0.25)" stroke_width="1"/>
  <circle cx="200" cy="210" r="25" fill="#2d8a4e" opacity="0.7"/>
  <circle cx="270" cy="220" r="30" fill="#2d8a4e" opacity="0.7"/>
  <circle cx="280" cy="260" r="20" fill="#2d8a4e" opacity="0.7"/>
  <circle cx="260" cy="290" r="15" fill="#2d8a4e" opacity="0.7"/>
  <circle cx="220" cy="300" r="18" fill="#2d8a4e" opacity="0.7"/>
  <circle cx="290" cy="180" r="22" fill="#2d8a4e" opacity="0.7"/>
  <circle cx="310" cy="240" r="28" fill="#2d8a4e" opacity="0.7"/>
  <circle cx="330" cy="280" r="18" fill="#2d8a4e" opacity="0.7"/>
  <circle cx="350" cy="310" r="14" fill="#2d8a4e" opacity="0.7"/>
  <circle cx="160" cy="200" r="10" fill="#2d8a4e" opacity="0.7"/>
  <circle cx="240" cy="150" r="18" fill="#2d8a4e" opacity="0.7"/>
  <circle cx="200" cy="260" r="12" fill="#2d8a4e" opacity="0.7"/>
  <text x="250" y="470" font_size="22" text_anchor="middle" fill="#1a5276" font_weight="bold" font_family="Arial, sans-serif">🌍 Earth</text>
</svg>
